<?xml version="1.0" encoding="utf-8"?>
<!-- Generator: Adobe Illustrator 16.2.0, SVG Export Plug-In . SVG Version: 6.00 Build 0)  -->
<!DOCTYPE svg PUBLIC "-//W3C//DTD SVG 1.1//EN" "http://www.w3.org/Graphics/SVG/1.1/DTD/svg11.dtd">
<svg version="1.1" id="Слой_2" xmlns="http://www.w3.org/2000/svg" xmlns:xlink="http://www.w3.org/1999/xlink" x="0px" y="0px"
	 width="512px" height="512px" viewBox="0 0 512 512" enable-background="new 0 0 512 512" xml:space="preserve">
<g>
	<path fill="#016DAB" d="M429.5,142.646c3.752,0,6.792-3.041,6.792-6.791V88.274c0-18.448-15.301-33.457-34.107-33.457H127.893
		c-18.989,0-33.864,14.695-33.864,33.457v303.418c0,18.948,15.19,34.363,33.864,34.363h66.641v47.082
		c0,2.354,1.218,4.54,3.221,5.778c2.002,1.237,4.503,1.351,6.607,0.297l33.182-16.592l33.18,16.592c0.959,0.479,2,0.717,3.037,0.717
		c1.242,0,2.479-0.341,3.571-1.014c2.001-1.238,3.22-3.424,3.22-5.778v-47.095l121.631-0.214c18.808,0,34.108-15.313,34.108-34.137
		v-47.581c0-3.75-3.04-6.792-6.792-6.792h-47.535V142.646H429.5z M422.71,88.274v40.791h-40.745V88.727
		c0-11.164,9.075-20.28,20.231-20.328C413.51,68.406,422.71,77.319,422.71,88.274z M270.564,363.021
		c-0.95,0.509-1.764,1.238-2.377,2.117c-8.521,7.086-19.231,10.981-30.327,10.981c-11.782,0-23.095-4.362-31.85-12.277
		c-9.968-9.026-15.686-21.878-15.686-35.26c0-26.212,21.324-47.536,47.536-47.536c26.213,0,47.537,21.324,47.537,47.536
		C285.397,341.604,280.007,354.048,270.564,363.021z M266.971,462.15l-26.391-13.194c-1.911-0.956-4.162-0.956-6.074,0
		l-26.391,13.194v-80.192c9.028,5.044,19.239,7.743,29.744,7.743c10.245,0,20.236-2.576,29.111-7.396V462.15z M280.552,372.271
		c11.746-11.48,18.427-27.228,18.427-43.689c0-33.7-27.417-61.117-61.119-61.117c-33.7,0-61.118,27.417-61.118,61.117
		c0,16.123,6.447,31.641,17.792,43.071v40.82h-66.641c-11.185,0-20.283-9.322-20.283-20.781V88.274
		c0-11.146,8.909-19.875,20.283-19.875H375.18c-4.265,5.672-6.799,12.714-6.799,20.328v302.966c0,7.729,2.577,14.868,6.905,20.602
		l-94.734,0.167V372.271z M422.71,350.901v40.791c0,11.136-9.389,20.544-20.52,20.554c-11.154-0.05-20.226-9.267-20.226-20.554
		v-40.791H422.71z"/>
	<path fill="#016DAB" d="M237.86,294.629c-18.723,0-33.954,15.23-33.954,33.953c0,18.724,15.231,33.955,33.954,33.955
		c18.724,0,33.955-15.231,33.955-33.955C271.815,309.859,256.584,294.629,237.86,294.629z M237.86,348.956
		c-11.234,0-20.373-9.14-20.373-20.374c0-11.233,9.139-20.372,20.373-20.372c11.235,0,20.374,9.139,20.374,20.372
		C258.234,339.816,249.095,348.956,237.86,348.956z"/>
	<path fill="#016DAB" d="M328.542,192.447H147.45c-3.75,0-6.791,3.041-6.791,6.791c0,3.751,3.041,6.791,6.791,6.791h181.091
		c3.751,0,6.792-3.04,6.792-6.791C335.334,195.488,332.293,192.447,328.542,192.447z"/>
	<path fill="#016DAB" d="M301.378,219.611H174.614c-3.75,0-6.791,3.041-6.791,6.791c0,3.751,3.041,6.791,6.791,6.791h126.764
		c3.751,0,6.792-3.04,6.792-6.791C308.17,222.651,305.129,219.611,301.378,219.611z"/>
	<path fill="#016DAB" d="M328.542,165.283h-27.164c-3.749,0-6.789,3.041-6.789,6.791s3.04,6.791,6.789,6.791h27.164
		c3.751,0,6.792-3.04,6.792-6.791S332.293,165.283,328.542,165.283z"/>
	<path fill="#016DAB" d="M147.45,178.865h126.764c3.75,0,6.791-3.04,6.791-6.791s-3.041-6.791-6.791-6.791H147.45
		c-3.75,0-6.791,3.041-6.791,6.791S143.7,178.865,147.45,178.865z"/>
	<path fill="#016DAB" d="M170.308,141.37c1.24,0.963,2.709,1.431,4.166,1.431c2.024,0,4.026-0.901,5.366-2.621l15.771-20.273
		l15.765,20.271c1.287,1.654,3.264,2.622,5.359,2.622c2.096,0,4.074-0.966,5.36-2.621l15.772-20.274l15.765,20.272
		c1.287,1.654,3.266,2.622,5.361,2.622c2.095,0,4.073-0.968,5.36-2.622l15.764-20.271l15.763,20.271
		c2.302,2.961,6.568,3.495,9.53,1.191c2.961-2.303,3.493-6.569,1.191-9.529l-21.125-27.163c-1.287-1.655-3.265-2.622-5.359-2.622
		c-2.096,0-4.075,0.967-5.361,2.622l-15.763,20.27l-15.765-20.27c-1.287-1.655-3.265-2.622-5.359-2.622
		c-2.096,0-4.075,0.967-5.36,2.621l-15.772,20.273l-15.765-20.27c-1.287-1.654-3.264-2.622-5.358-2.622
		c-2.097,0-4.076,0.967-5.361,2.621l-21.133,27.164C166.816,134.8,167.348,139.066,170.308,141.37z"/>
</g>
</svg>
