<?xml version="1.0" encoding="utf-8"?><svg viewBox="0 0 512 512" xmlns="http://www.w3.org/2000/svg" xmlns:xlink="http://www.w3.org/1999/xlink"><style>:root>svg{display:none}:root>svg:target{display:block}</style><svg id="address" x="0" y="0" viewBox="0 0 512 512" xml:space="preserve" xmlns="http://www.w3.org/2000/svg"><style>.ast0{fill:#d5a35d}</style><path class="ast0" d="M316 260c-5.5 0-10 4.5-10 10s4.5 10 10 10 10-4.5 10-10-4.5-10-10-10z"/><path class="ast0" d="M102.2 369.8l-100 126c-2.4 3-2.8 7.1-1.2 10.6 1.7 3.5 5.2 5.7 9 5.7h492c3.8 0 7.3-2.2 9-5.7 1.7-3.5 1.2-7.6-1.2-10.6l-100-126c-1.9-2.4-4.8-3.8-7.8-3.8h-87.6l74.8-117.3c17.5-26.3 26.8-57 26.8-88.7C416 71.8 344.2 0 256 0S96 71.8 96 160c0 31.7 9.3 62.4 26.8 88.7L197.6 366H110c-3.1 0-5.9 1.4-7.8 3.8zM64.8 449h60.5l-34.1 43H30.7l34.1-43zm145.6-63l27.4 43h-71.1l34.1-43h9.6zm91.3 0h9.5l34.1 43h-71.1l27.5-43zm59.5 63l34.1 43H116.7l34.1-43h210.4zm59.6 43l-34.1-43h60.5l34.1 43h-60.5zm10.5-63h-60.5l-34.1-43h60.5l34.1 43zM139.5 237.7c-15.4-23-23.5-49.9-23.5-77.7 0-77.2 62.8-140 140-140s140 62.8 140 140c0 27.8-8.1 54.7-23.5 77.7 0 .1-.1.1-.1.2-6.6 10.3-111.3 174.6-116.4 182.5-12.7-20-103.4-162.2-116.4-182.5 0-.1-.1-.2-.1-.2zM175.3 386l-34.1 43H80.7l34.1-43h60.5z"/><path class="ast0" d="M256 260c54.9 0 100-44.5 100-100 0-55.1-44.9-100-100-100s-100 44.9-100 100c0 55.6 45.1 100 100 100zm0-180c44.1 0 80 35.9 80 80 0 44.5-36.2 80-80 80s-80-35.5-80-80c0-44.1 35.9-80 80-80zm42.1 214.1c-4.7-2.9-10.9-1.3-13.7 3.4l-37 61.3c-2.9 4.7-1.3 10.9 3.4 13.7 4.8 2.9 10.9 1.3 13.7-3.4l37-61.3c2.9-4.7 1.4-10.8-3.4-13.7z"/></svg><svg viewBox="0 0 24 24" id="arrow-left" xmlns="http://www.w3.org/2000/svg"><path fill-rule="evenodd" clip-rule="evenodd" d="M9.207 17.207a1 1 0 01-1.414 0l-4.5-4.5a1 1 0 010-1.414l4.5-4.5a1 1 0 011.414 1.414L6.414 11H20a1 1 0 110 2H6.414l2.793 2.793a1 1 0 010 1.414z"/></svg><svg viewBox="0 0 24 24" id="arrow-right" xmlns="http://www.w3.org/2000/svg"><path fill-rule="evenodd" clip-rule="evenodd" d="M14.793 6.793a1 1 0 011.414 0l4.5 4.5a1 1 0 010 1.414l-4.5 4.5a1 1 0 01-1.414-1.414L17.586 13H4a1 1 0 110-2h13.586l-2.793-2.793a1 1 0 010-1.414z"/></svg><svg viewBox="0 0 512 512" id="card" xmlns="http://www.w3.org/2000/svg"><path d="M498.409 175.706L336.283 13.582C327.531 4.831 315.86.011 303.418.011c-12.441 0-24.113 4.818-32.865 13.569L13.571 270.563C4.82 279.315 0 290.985 0 303.427c0 12.442 4.82 24.114 13.571 32.864l19.992 19.992.005.005.006.006 134.36 134.36H149.33c-5.89 0-10.666 4.775-10.666 10.666 0 5.89 4.776 10.666 10.666 10.666h59.189l.041.001.041-.001 154.053.002c5.89 0 10.666-4.776 10.666-10.666 0-5.891-4.776-10.666-10.666-10.666l-113.464-.002 249.22-249.22c18.12-18.122 18.12-47.608-.001-65.728zm-15.084 50.644L226.341 483.334c-4.713 4.712-11.013 7.31-17.742 7.32h-.081c-6.727-.011-13.025-2.608-17.736-7.32L56.195 348.746 302.99 101.949c4.165-4.165 4.165-10.919 0-15.084-4.166-4.165-10.918-4.165-15.085.001L41.11 333.663l-12.456-12.456c-4.721-4.721-7.321-11.035-7.321-17.779s2.6-13.059 7.322-17.781L285.637 28.665c4.722-4.721 11.037-7.321 17.781-7.321 6.744 0 13.059 2.6 17.781 7.322l57.703 57.702-246.798 246.8c-4.165 4.164-4.165 10.918 0 15.085a10.636 10.636 0 007.542 3.123c2.729 0 5.459-1.042 7.542-3.124l246.798-246.799 89.339 89.336c9.803 9.804 9.802 25.757 0 35.561z"/><path d="M262.801 308.064c-4.165-4.165-10.917-4.164-15.085 0l-83.934 83.933c-4.165 4.165-4.165 10.918 0 15.085a10.633 10.633 0 007.542 3.124c2.729 0 5.459-1.042 7.542-3.124l83.934-83.933c4.166-4.167 4.166-10.92.001-15.085zm-34.426 79.677l-34.425 34.425c-4.165 4.165-4.165 10.919 0 15.085a10.637 10.637 0 007.542 3.124c2.731 0 5.459-1.042 7.542-3.124l34.425-34.425c4.165-4.165 4.165-10.919 0-15.085s-10.916-4.166-15.084 0zm31.679-31.676l-4.525 4.524c-4.166 4.165-4.166 10.918-.001 15.085a10.632 10.632 0 007.542 3.125 10.63 10.63 0 007.541-3.125l4.525-4.524c4.166-4.165 4.166-10.918.001-15.084-4.163-4.165-10.918-4.166-15.083-.001zm147.019-192.272a10.666 10.666 0 00-15.084 0l-45.255 45.254a10.668 10.668 0 000 15.084l30.17 30.167a10.633 10.633 0 007.542 3.124c2.731 0 5.459-1.042 7.542-3.124l45.253-45.252c4.165-4.165 4.165-10.919 0-15.084l-30.168-30.169zm-22.628 67.88l-15.085-15.084 30.17-30.169 15.084 15.085-30.169 30.168zM320.339 80.186c2.731 0 5.461-1.042 7.543-3.126l4.525-4.527c4.164-4.166 4.163-10.92-.003-15.084-4.165-4.164-10.92-4.163-15.084.003l-4.525 4.527c-4.164 4.166-4.163 10.92.003 15.084a10.628 10.628 0 007.541 3.123zM107.215 358.057l-4.525 4.525c-4.165 4.164-4.165 10.918 0 15.085 2.083 2.082 4.813 3.123 7.542 3.123s5.459-1.041 7.542-3.123l4.525-4.525c4.165-4.166 4.165-10.92 0-15.085-4.166-4.166-10.918-4.166-15.084 0z"/></svg><svg viewBox="0 0 24 24" id="facebook" xmlns="http://www.w3.org/2000/svg"><path d="M17.563 1.005L14.786 1c-3.12 0-5.137 2.125-5.137 5.414v2.497H6.857c-.242 0-.437.2-.437.448v3.617c0 .248.196.449.437.449h2.792v9.126c0 .248.195.449.437.449h3.643a.443.443 0 00.437-.449v-9.126h3.265c.241 0 .436-.2.436-.449l.002-3.617a.456.456 0 00-.128-.317.431.431 0 00-.31-.131h-3.265V6.794c0-1.017.236-1.533 1.525-1.533h1.871a.444.444 0 00.437-.45V1.454a.443.443 0 00-.436-.448z" opacity=".6"/></svg><svg viewBox="0 0 502.664 502.664" id="icon" xmlns="http://www.w3.org/2000/svg"><path d="M153.821 358.226L0 274.337v-46.463l153.821-83.414v54.574L46.636 250.523l107.185 53.431v54.272zm26.273 29.358L282.103 115.08h32.227L212.084 387.584h-31.99zm168.749-29.358v-54.272l107.164-52.999-107.164-52.59v-53.927l153.821 83.522v46.183l-153.821 84.083z"/></svg><svg viewBox="0 0 256 256" id="instagram" xmlns="http://www.w3.org/2000/svg"><path d="M253.546 75.718c-.614-13.458-2.755-22.65-5.88-30.693a62.017 62.017 0 00-14.583-22.399 62.064 62.064 0 00-22.399-14.591c-8.043-3.125-17.235-5.258-30.693-5.871-13.482-.614-17.795-.764-52.133-.764s-38.65.15-52.132.764c-13.458.613-22.65 2.754-30.693 5.879a61.9 61.9 0 00-22.4 14.59 62.001 62.001 0 00-14.59 22.4C4.918 53.076 2.785 62.268 2.17 75.726c-.621 13.49-.763 17.795-.763 52.14s.15 38.65.763 52.14c.614 13.458 2.755 22.65 5.88 30.694A62.017 62.017 0 0022.633 233.1a61.938 61.938 0 0022.399 14.583c8.043 3.125 17.235 5.265 30.693 5.88 13.482.613 17.795.763 52.132.763s38.651-.142 52.133-.764c13.458-.614 22.65-2.754 30.693-5.879a64.662 64.662 0 0036.983-36.982c3.124-8.043 5.265-17.236 5.879-30.694.613-13.49.763-17.794.763-52.14s-.15-38.658-.763-52.148zm-22.761 103.234c-.559 12.332-2.62 19.022-4.352 23.477a41.877 41.877 0 01-23.996 23.996c-4.455 1.731-11.153 3.793-23.477 4.352-13.332.606-17.33.74-51.094.74-33.77 0-37.769-.126-51.093-.74-12.325-.559-19.022-2.62-23.477-4.352a39.146 39.146 0 01-14.536-9.46 39.146 39.146 0 01-9.46-14.536c-1.731-4.455-3.793-11.152-4.352-23.477-.606-13.332-.74-17.33-.74-51.094s.126-37.76.74-51.093c.543-12.34 2.597-19.03 4.328-23.485a39.272 39.272 0 019.46-14.544 39.24 39.24 0 0114.544-9.46c4.455-1.731 11.153-3.793 23.477-4.352 13.332-.606 17.33-.732 51.094-.732s37.76.126 51.093.74c12.333.559 19.022 2.62 23.477 4.352a39.146 39.146 0 0114.536 9.46 39.179 39.179 0 019.46 14.544c1.731 4.455 3.793 11.152 4.352 23.477.606 13.332.74 17.33.74 51.093s-.118 37.762-.724 51.094z"/><path d="M127.85 62.921a64.937 64.937 0 10.024 129.859 64.937 64.937 0 00-.023-129.859zm0 107.082a42.153 42.153 0 11.016-84.305 42.153 42.153 0 01-.015 84.305zm82.677-109.647a15.174 15.174 0 11-30.347 0 15.174 15.174 0 0130.347 0z"/></svg><svg viewBox="-67 0 512 512.001" id="medal" xmlns="http://www.w3.org/2000/svg"><path d="M188.969 107.973c-50.024 0-90.723 40.695-90.723 90.718 0 50.028 40.7 90.723 90.723 90.723s90.719-40.695 90.719-90.723c0-50.023-40.696-90.718-90.72-90.718zm0 0"/><path d="M377.934 260.09l-27.512-61.399 27.512-61.398-58.344-33.504-13.832-65.844-66.899 7.192L188.97 0l-49.895 45.137-66.894-7.188-13.832 65.844L0 137.293l27.512 61.398L0 260.09l58.348 33.504 7.492 35.672-62.281 132.34 65 .851L110.645 512l61.218-130.09 17.106 15.473 17.101-15.473L267.293 512l42.082-49.543 65-.852-62.281-132.34 7.496-35.671zm-188.965 59.32c-66.567 0-120.719-54.152-120.719-120.719S122.402 77.973 188.969 77.973c66.562 0 120.719 54.156 120.719 120.718 0 66.567-54.157 120.72-120.72 120.72zm0 0"/></svg><svg viewBox="0 0 24 24" id="messanger" xmlns="http://www.w3.org/2000/svg"><path d="M12 2C6.478 2 2 6.145 2 11.259c0 2.913 1.454 5.512 3.726 7.21V22l3.405-1.869c.909.252 1.871.388 2.869.388 5.523 0 10-4.145 10-9.259C22 6.146 17.523 2 12 2zm.994 12.469l-2.546-2.716-4.97 2.716 5.467-5.803 2.609 2.716 4.906-2.716-5.466 5.803z" opacity=".6"/></svg><svg viewBox="0 0 20 20" id="mute" xmlns="http://www.w3.org/2000/svg"><path fill-rule="evenodd" clip-rule="evenodd" d="M12 15.583c.584.416 1.334.083 1.334-.667v-3.75l-3.084 3.083L12 15.583zM17.25 4.416a.805.805 0 00-1.166 0l-2.75 2.75V5.083c0-.667-.834-1.084-1.334-.667L9.667 6.333c-.333.166-.667.333-1.083.333H6.667C5.75 6.666 5 7.416 5 8.333v3.333c0 .917.75 1.667 1.667 1.667h.5l-2.75 2.75a.806.806 0 000 1.166.806.806 0 001.167 0L17.25 5.583a.805.805 0 000-1.167z"/></svg><svg baseProfile="basic" viewBox="0 0 90 90" id="phone" xmlns="http://www.w3.org/2000/svg"><path d="M38.789 51.211l10.876 10.876a3.122 3.122 0 003.684.543l13.034-6.997a3.12 3.12 0 013.07.066L88.47 66.984a3.113 3.113 0 011.268 3.933c-1.625 3.698-4.583 10.476-5.758 13.473-.247.631-.615 1.209-1.127 1.652-12.674 10.986-37.89-2.4-57.191-21.701C6.358 45.039-7.028 19.823 3.958 7.149c.444-.512 1.022-.88 1.652-1.127C8.606 4.847 15.385 1.889 19.083.264a3.113 3.113 0 013.933 1.268l11.285 19.017c.558.941.583 2.106.066 3.07L27.37 36.651a3.122 3.122 0 00.543 3.684l10.876 10.876zM90 49.5h-9C81 27.168 62.832 9 40.5 9V0C67.794 0 90 22.206 90 49.5z"/><path d="M72.5 49.5h-9c0-12.682-10.317-23-23-23v-9c17.645 0 32 14.355 32 32z"/></svg><svg viewBox="0 0 19 22" id="play" xmlns="http://www.w3.org/2000/svg"><path d="M18.5 10.134a1 1 0 010 1.732L2 21.392a1 1 0 01-1.5-.866V1.474A1 1 0 012 .608l16.5 9.526z"/></svg><svg viewBox="0 0 512 512" id="premium" xmlns="http://www.w3.org/2000/svg"><path d="M429.5 142.646a6.791 6.791 0 006.792-6.791V88.274c0-18.448-15.301-33.457-34.107-33.457H127.893c-18.989 0-33.864 14.695-33.864 33.457v303.418c0 18.948 15.19 34.363 33.864 34.363h66.641v47.082a6.792 6.792 0 009.828 6.075l33.182-16.592 33.18 16.592a6.795 6.795 0 006.608-.297 6.795 6.795 0 003.22-5.778v-47.095l121.631-.214c18.808 0 34.108-15.313 34.108-34.137V344.11c0-3.75-3.04-6.792-6.792-6.792h-47.535V142.646H429.5zm-6.79-54.372v40.791h-40.745V88.727c0-11.164 9.075-20.28 20.231-20.328 11.314.007 20.514 8.92 20.514 19.875zM270.564 363.021a6.842 6.842 0 00-2.377 2.117 47.408 47.408 0 01-62.177-1.296c-9.968-9.026-15.686-21.878-15.686-35.26 0-26.212 21.324-47.536 47.536-47.536 26.213 0 47.537 21.324 47.537 47.536 0 13.022-5.39 25.466-14.833 34.439zm-3.593 99.129l-26.391-13.194a6.79 6.79 0 00-6.074 0l-26.391 13.194v-80.192a60.924 60.924 0 0029.744 7.743 60.975 60.975 0 0029.111-7.396v79.845zm13.581-89.879c11.746-11.48 18.427-27.228 18.427-43.689 0-33.7-27.417-61.117-61.119-61.117-33.7 0-61.118 27.417-61.118 61.117 0 16.123 6.447 31.641 17.792 43.071v40.82h-66.641c-11.185 0-20.283-9.322-20.283-20.781V88.274c0-11.146 8.909-19.875 20.283-19.875H375.18a33.725 33.725 0 00-6.799 20.328v302.966a34.096 34.096 0 006.905 20.602l-94.734.167v-40.191zm142.158-21.37v40.791c0 11.136-9.389 20.544-20.52 20.554-11.154-.05-20.226-9.267-20.226-20.554v-40.791h40.746z"/><path d="M237.86 294.629c-18.723 0-33.954 15.23-33.954 33.953 0 18.724 15.231 33.955 33.954 33.955 18.724 0 33.955-15.231 33.955-33.955 0-18.723-15.231-33.953-33.955-33.953zm0 54.327c-11.234 0-20.373-9.14-20.373-20.374 0-11.233 9.139-20.372 20.373-20.372 11.235 0 20.374 9.139 20.374 20.372 0 11.234-9.139 20.374-20.374 20.374zm90.682-156.509H147.45a6.792 6.792 0 000 13.582h181.091a6.791 6.791 0 10.001-13.582zm-27.164 27.164H174.614a6.792 6.792 0 000 13.582h126.764a6.791 6.791 0 100-13.582zm27.164-54.328h-27.164c-3.749 0-6.789 3.041-6.789 6.791s3.04 6.791 6.789 6.791h27.164a6.791 6.791 0 100-13.582zM147.45 178.865h126.764a6.791 6.791 0 000-13.582H147.45a6.792 6.792 0 000 13.582zm22.858-37.495a6.773 6.773 0 004.166 1.431 6.785 6.785 0 005.366-2.621l15.771-20.273 15.765 20.271a6.79 6.79 0 0010.719.001l15.772-20.274 15.765 20.272a6.792 6.792 0 0010.721 0l15.764-20.271 15.763 20.271a6.79 6.79 0 009.53 1.191 6.79 6.79 0 001.191-9.529l-21.125-27.163a6.789 6.789 0 00-10.72 0l-15.763 20.27-15.765-20.27a6.789 6.789 0 00-10.719-.001l-15.772 20.273-15.765-20.27a6.79 6.79 0 00-10.719-.001l-21.133 27.164a6.79 6.79 0 001.188 9.529z"/></svg><svg viewBox="0 0 24 24" id="twitter" xmlns="http://www.w3.org/2000/svg"><path d="M22.5 5.772a8.902 8.902 0 01-2.474.65 4.18 4.18 0 001.894-2.28 8.922 8.922 0 01-2.737 1 4.387 4.387 0 00-3.145-1.302c-2.379 0-4.308 1.847-4.308 4.124 0 .323.038.638.112.94-3.58-.173-6.754-1.815-8.879-4.31a3.962 3.962 0 00-.583 2.073c0 1.431.762 2.694 1.916 3.433a4.455 4.455 0 01-1.95-.518v.052c0 1.997 1.485 3.665 3.454 4.044-.36.093-.741.145-1.135.145a4.31 4.31 0 01-.81-.077c.548 1.64 2.138 2.832 4.023 2.865a8.89 8.89 0 01-5.35 1.763c-.348 0-.69-.02-1.028-.057a12.572 12.572 0 006.603 1.856c7.925 0 12.257-6.285 12.257-11.736l-.015-.534a8.412 8.412 0 002.155-2.13z" opacity=".6"/></svg><svg viewBox="0 0 256 256" id="vk" xmlns="http://www.w3.org/2000/svg"><path d="M248.504 62.93c1.76-5.863 0-10.17-8.365-10.17h-27.667c-7.037 0-10.28 3.72-12.036 7.826 0 0-14.072 34.293-34.003 56.57-6.446 6.45-9.377 8.504-12.898 8.504-1.756 0-4.302-2.055-4.302-7.913V62.929c0-7.033-2.043-10.17-7.905-10.17H97.846c-4.395 0-7.042 3.266-7.042 6.363 0 6.668 9.967 8.208 10.996 26.967v40.742c0 8.933-1.613 10.558-5.131 10.558-9.377 0-32.194-34.451-45.727-73.87-2.653-7.663-5.311-10.756-12.381-10.756H10.894c-7.908-.003-9.487 3.717-9.487 7.82 0 7.328 9.377 43.676 43.673 91.746 22.862 32.827 55.073 50.625 84.387 50.625 17.585 0 19.763-3.953 19.763-10.762v-24.81c0-7.907 1.666-9.483 7.236-9.483 4.102 0 11.136 2.048 27.552 17.877 18.76 18.76 21.85 27.175 32.405 27.175h27.667c7.902 0 11.855-3.953 9.576-11.751-2.498-7.775-11.453-19.055-23.337-32.422-6.449-7.62-16.124-15.828-19.054-19.934-4.106-5.274-2.931-7.618 0-12.31.002.002 33.714-47.484 37.23-63.605"/></svg><svg viewBox="0 0 24 24" id="whatsapp" xmlns="http://www.w3.org/2000/svg"><path d="M22 11.742c0 5.381-4.395 9.743-9.818 9.743a9.835 9.835 0 01-4.746-1.212L2 22l1.772-5.227a9.64 9.64 0 01-1.409-5.03C2.363 6.361 6.76 2 12.182 2 17.605 2 22 6.362 22 11.742zm-9.818-8.19c-4.552 0-8.255 3.674-8.255 8.19 0 1.793.584 3.452 1.573 4.803l-1.032 3.042 3.172-1.009a8.25 8.25 0 004.542 1.355c4.551 0 8.255-3.674 8.255-8.19 0-4.517-3.703-8.191-8.255-8.191zm4.958 10.434c-.06-.1-.221-.16-.462-.278-.24-.12-1.424-.698-1.644-.777-.22-.08-.382-.12-.542.12-.16.238-.621.776-.762.935-.14.16-.28.18-.522.06-.24-.119-1.015-.371-1.935-1.185-.715-.633-1.198-1.414-1.339-1.653-.14-.24-.014-.368.106-.487.108-.107.24-.279.361-.418.12-.14.16-.24.24-.399.081-.16.041-.298-.02-.418-.06-.12-.541-1.295-.742-1.773-.2-.478-.4-.398-.541-.398-.14 0-.3-.02-.461-.02-.16 0-.422.06-.642.299-.22.239-.842.816-.842 1.991 0 1.175.862 2.31.982 2.47.12.159 1.665 2.649 4.111 3.605 2.447.956 2.447.637 2.889.597.44-.04 1.423-.578 1.625-1.135.2-.558.2-1.036.14-1.136z" opacity=".6"/></svg><svg viewBox="0 0 24 24" id="youtube" xmlns="http://www.w3.org/2000/svg"><path fill-rule="evenodd" clip-rule="evenodd" d="M21.39 4.114a3.007 3.007 0 012.116 2.115c.514 1.878.494 5.792.494 5.792s0 3.895-.494 5.773a3.007 3.007 0 01-2.116 2.115c-1.878.495-9.39.495-9.39.495s-7.493 0-9.39-.514a3.007 3.007 0 01-2.116-2.116C0 15.916 0 12.001 0 12.001S0 8.107.494 6.23A3.068 3.068 0 012.61 4.094C4.488 3.6 12 3.6 12 3.6s7.513 0 9.391.514zm-5.535 7.888L9.608 15.6V8.404l6.247 3.598z" opacity=".6"/></svg></svg>